<?xml version="1.0" standalone="no"?>
<!DOCTYPE svg PUBLIC "-//W3C//DTD SVG 20010904//EN"
 "http://www.w3.org/TR/2001/REC-SVG-20010904/DTD/svg10.dtd">
<svg version="1.0" xmlns="http://www.w3.org/2000/svg"
 width="426.000000pt" height="118.000000pt" viewBox="0 0 426.000000 118.000000"
 preserveAspectRatio="xMidYMid meet">

<g transform="translate(0.000000,118.000000) scale(0.100000,-0.100000)"
fill="#000000" stroke="none">

<path d="M1404 961 c-49 -23 -107 -88 -122 -140 -49 -162 63 -309 236 -311 50
0 142 17 142 27 0 2 -10 22 -22 43 -20 34 -27 38 -48 33 -46 -12 -116 -7 -140
10 -63 44 -81 143 -37 208 34 50 61 61 139 55 l66 -6 21 34 c12 18 21 36 21
39 0 13 -78 27 -145 27 -46 0 -84 -7 -111 -19z" fill="teal"/>

<path d="M670 948 c-76 -29 -160 -115 -186 -188 -29 -86 -25 -180 11 -259 l30
-63 2 58 c1 33 2 93 2 134 1 41 8 98 16 126 31 107 125 186 242 203 l58 9 -60
0 c-38 1 -80 -7 -115 -20z" fill="teal"/>

<path d="M1743 963 c-23 -4 -23 -7 -23 -160 0 -124 3 -162 17 -190 20 -43 79
-83 132 -90 l41 -6 0 42 c0 28 -4 41 -14 41 -7 0 -25 9 -40 21 l-26 20 0 165
0 164 -32 -1 c-18 -1 -43 -4 -55 -6z" fill="teal"/>

<path d="M2762 958 c-31 -31 0 -78 52 -78 37 0 56 15 56 45 0 12 -5 26 -12 33
-16 16 -80 16 -96 0z" fill="teal"/>

<path d="M879 818 c-101 -70 -228 -200 -262 -267 -39 -78 -38 -157 1 -194 39
-38 122 -60 198 -54 109 8 201 75 261 189 24 46 28 64 28 143 0 55 -5 98 -13
110 -11 18 -11 17 -5 -10 14 -58 8 -158 -14 -205 -26 -58 -85 -116 -148 -146
-77 -36 -135 -28 -135 20 0 28 71 111 144 168 46 37 50 38 67 22 18 -17 19
-15 18 37 -1 30 -4 64 -8 77 -6 23 -7 23 -71 -20 -86 -57 -221 -192 -254 -254
-25 -46 -27 -47 -22 -16 3 19 13 50 23 70 20 45 186 212 265 267 50 34 57 43
52 65 -5 23 -29 50 -44 50 -4 0 -40 -23 -81 -52z" fill="teal"/>

<path d="M3450 840 c-96 -14 -90 -2 -90 -171 l0 -149 55 0 55 0 0 120 0 120
54 0 c39 0 62 -6 87 -23 l34 -23 3 -212 2 -212 55 0 55 0 0 210 c0 231 -3 245
-60 294 -50 41 -152 60 -250 46z" fill="teal"/>

<path d="M2042 819 c-87 -43 -119 -146 -69 -220 91 -136 352 -97 380 56 6 35
-13 97 -40 127 -52 59 -189 77 -271 37z m158 -74 c56 -29 64 -72 21 -116 -22
-22 -39 -29 -68 -29 -95 0 -135 95 -59 141 37 23 67 24 106 4z" fill="teal"/>
<path d="M2380 833 c0 -5 26 -75 58 -158 l58 -150 48 0 48 0 59 155 c32 85 59
156 59 158 0 1 -22 2 -49 2 l-49 0 -33 -85 c-18 -48 -35 -82 -39 -78 -4 4 -20
43 -35 86 l-28 77 -48 0 c-27 0 -49 -3 -49 -7z" fill="teal"/>

<path d="M2783 833 c-23 -4 -23 -7 -23 -159 l0 -154 55 0 55 0 0 160 0 160
-32 -1 c-18 -1 -43 -4 -55 -6z" fill="teal"/>

<path d="M3015 821 c-74 -33 -117 -110 -101 -176 12 -48 74 -104 135 -122 195
-57 357 138 219 263 -62 57 -172 72 -253 35z m155 -76 c32 -17 46 -51 36 -90
-7 -29 -52 -55 -95 -55 -17 0 -42 11 -60 26 -81 68 21 170 119 119z" fill="teal"/>

<path d="M1631 358 c2 -77 6 -69 11 20 2 28 0 52 -4 52 -5 0 -7 -33 -7 -72z"/>
<path d="M2070 371 c0 -38 5 -63 14 -70 10 -8 16 -9 21 -1 3 5 1 10 -4 10 -7
0 -11 24 -11 60 0 33 -4 60 -10 60 -6 0 -10 -26 -10 -59z" fill="teal"/>

<path d="M2350 419 c0 -5 5 -7 10 -4 6 3 10 8 10 11 0 2 -4 4 -10 4 -5 0 -10
-5 -10 -11z" fill="teal"/>

<path d="M3550 370 l0 -60 -30 0 c-27 0 -30 3 -30 30 0 25 4 30 25 30 14 0 25
5 25 10 0 14 -43 13 -58 -2 -7 -7 -12 -25 -12 -40 0 -37 38 -57 75 -40 23 10
25 17 25 72 0 33 -4 60 -10 60 -6 0 -10 -27 -10 -60z" fill="teal"/>

<path d="M1280 410 c0 -5 11 -10 25 -10 22 0 24 -4 28 -57 l3 -58 2 58 c2 54
3 57 27 57 14 0 25 5 25 10 0 6 -25 10 -55 10 -30 0 -55 -4 -55 -10z" fill="teal"/>

<path d="M1814 406 c-13 -34 0 -51 46 -56 31 -3 45 -10 45 -20 0 -11 -13 -16
-47 -18 -60 -4 -63 -22 -4 -22 42 0 76 18 76 40 0 20 -34 40 -66 40 -24 0 -34
5 -34 15 0 11 12 15 45 15 25 0 45 5 45 10 0 16 -100 12 -106 -4z" fill="teal"/>

<path d="M2270 405 c0 -8 -7 -15 -15 -15 -8 0 -15 -4 -15 -10 0 -5 7 -10 15
-10 11 0 15 -11 15 -40 0 -22 5 -40 10 -40 6 0 10 18 10 40 0 33 3 40 20 40
11 0 20 5 20 10 0 6 -9 10 -20 10 -11 0 -20 7 -20 15 0 8 -4 15 -10 15 -5 0
-10 -7 -10 -15z" fill="teal"/>

<path d="M2812 408 c-14 -14 -16 -104 -2 -113 6 -4 10 15 10 49 l0 56 40 0
c27 0 43 -5 46 -15 9 -23 -16 -47 -43 -42 -13 2 -23 0 -23 -5 0 -5 17 -8 38
-6 36 3 37 4 37 43 l0 40 -45 3 c-26 2 -50 -2 -58 -10z" fill="teal"/>

<path d="M3090 405 c0 -8 -7 -15 -15 -15 -8 0 -15 -4 -15 -10 0 -5 7 -10 15
-10 11 0 15 -11 15 -41 0 -23 4 -38 9 -34 6 3 8 19 6 36 -3 24 0 32 16 36 25
7 25 23 -1 23 -13 0 -18 5 -14 15 4 8 1 15 -5 15 -6 0 -11 -7 -11 -15z" fill="teal"/>

<path d="M3262 358 l-2 -68 49 0 c65 0 76 18 14 22 l-48 3 -6 55 -6 55 -1 -67z" fill="teal"/>

<path d="M3401 408 c0 -10 -8 -18 -16 -18 -8 0 -15 -4 -15 -10 0 -5 6 -10 14
-10 10 0 16 -14 19 -42 l4 -43 1 43 c2 35 5 42 22 42 11 0 20 5 20 10 0 6 -9
10 -19 10 -11 0 -22 8 -24 18 -4 16 -5 16 -6 0z" fill="teal"/>

<path d="M1407 383 c-16 -15 -7 -72 12 -83 25 -13 51 -13 51 0 0 6 -11 10 -25
10 -21 0 -25 5 -25 30 0 27 3 30 30 30 38 0 39 -15 3 -28 l-28 -10 31 -1 c35
-1 52 22 33 45 -12 14 -70 19 -82 7z" fill="teal"/>

<path d="M1527 383 c-4 -3 -7 -23 -7 -44 0 -39 11 -49 56 -49 36 0 29 18 -8
22 -28 2 -33 7 -33 28 0 21 5 26 33 28 17 2 32 7 32 13 0 10 -63 13 -73 2z" fill="teal"/>

<path d="M1660 380 c0 -5 11 -10 25 -10 23 0 25 -4 25 -40 0 -22 5 -40 10 -40
14 0 12 74 -2 88 -15 15 -58 16 -58 2z" fill="teal"/>

<path d="M1957 383 c-4 -3 -7 -23 -7 -44 0 -33 4 -40 24 -45 32 -8 66 3 67 22
1 8 2 20 3 27 5 28 -15 47 -48 47 -18 0 -36 -3 -39 -7z m71 -40 c-2 -22 -9
-29 -31 -31 -18 -2 -29 2 -33 12 -11 28 4 46 36 46 28 0 31 -3 28 -27z" fill="teal"/>

<path d="M2120 356 c0 -44 23 -68 64 -64 29 3 31 5 34 51 2 28 -1 47 -7 47 -6
0 -11 -18 -11 -41 0 -38 -1 -40 -27 -37 -24 3 -28 8 -31 41 -4 46 -22 49 -22
3z" fill="teal"/>

<path d="M2350 339 c0 -31 4 -48 10 -44 6 3 10 26 10 51 0 24 -4 44 -10 44 -5
0 -10 -23 -10 -51z" fill="teal"/>

<path d="M2403 383 c-16 -6 -17 -65 -1 -81 15 -15 61 -15 76 0 7 7 12 24 12
38 0 14 -5 31 -12 38 -12 12 -52 15 -75 5z m67 -43 c0 -27 -3 -30 -30 -30 -27
0 -30 3 -30 30 0 27 3 30 30 30 27 0 30 -3 30 -30z" fill="teal"/>

<path d="M2517 383 c-11 -10 -8 -93 3 -93 6 0 10 18 10 40 0 38 2 40 30 40 23
0 31 -5 34 -22 3 -13 7 -32 9 -43 3 -11 5 -2 6 21 0 22 -4 45 -11 52 -13 13
-70 17 -81 5z" fill="teal"/>

<path d="M2642 377 c-16 -18 -2 -35 33 -39 40 -4 38 -22 -2 -26 -38 -4 -45
-22 -9 -22 39 0 56 11 56 36 0 18 -7 25 -27 30 -47 10 -49 12 -15 13 17 1 32
6 32 11 0 15 -56 12 -68 -3z" fill="teal"/>

<path d="M2948 340 c2 -27 6 -50 8 -50 35 0 107 81 88 98 -4 4 -9 1 -11 -6 -7
-20 -54 -72 -64 -72 -5 0 -9 18 -9 40 0 22 -3 40 -7 40 -5 0 -6 -22 -5 -50z" fill="teal"/>

<path d="M2097 213 c-14 -13 -7 -43 11 -43 13 0 14 2 4 9 -8 4 -14 12 -14 16
0 4 6 12 14 16 7 5 8 9 2 9 -6 0 -14 -3 -17 -7z" fill="teal"/>

<path d="M2237 200 c-3 -11 -1 -23 4 -26 5 -3 9 6 9 20 0 31 -6 34 -13 6z"/>
<path d="M2263 204 c-8 -21 13 -42 28 -27 13 13 5 43 -11 43 -6 0 -13 -7 -17
-16z m27 -9 c0 -8 -4 -15 -10 -15 -5 0 -10 7 -10 15 0 8 5 15 10 15 6 0 10 -7
10 -15z" fill="teal"/>

<path d="M2367 200 c3 -11 9 -22 13 -25 5 -3 6 4 3 15 -3 11 -9 22 -13 25 -5
3 -6 -4 -3 -15z" fill="teal"/>

<path d="M2398 195 c2 -14 6 -25 7 -25 1 0 5 11 7 25 3 16 1 25 -7 25 -8 0
-10 -9 -7 -25z" fill="teal"/>

<path d="M2437 213 c-14 -13 -7 -43 11 -43 13 0 14 2 4 9 -8 4 -14 12 -14 16
0 4 6 12 14 16 7 5 8 9 2 9 -6 0 -14 -3 -17 -7z" fill="teal"/>

<path d="M2627 213 c-4 -3 -7 -16 -6 -27 0 -12 3 -15 6 -8 2 6 9 10 14 6 5 -3
9 0 9 5 0 6 -6 11 -12 11 -9 0 -8 4 2 10 8 5 10 10 4 10 -6 0 -14 -3 -17 -7z" fill="teal"/>

<path d="M2688 195 c2 -14 6 -25 7 -25 1 0 5 11 7 25 3 16 1 25 -7 25 -8 0
-10 -9 -7 -25z" fill="teal"/>

<path d="M2863 204 c-8 -22 13 -42 30 -25 10 10 9 11 -5 6 -21 -8 -26 20 -5
28 9 4 9 6 -1 6 -7 1 -15 -6 -19 -15z" fill="teal"/>

<path d="M2958 195 c2 -14 6 -25 7 -25 1 0 5 11 7 25 3 16 1 25 -7 25 -8 0
-10 -9 -7 -25z" fill="teal"/>

<path d="M2995 211 c-3 -5 0 -13 6 -17 8 -4 7 -9 -2 -15 -10 -6 -10 -9 -2 -9
16 0 26 17 13 25 -6 4 -8 11 -5 16 4 5 4 9 1 9 -3 0 -7 -4 -11 -9z" fill="teal"/>

<path d="M2066 195 c-9 -26 -7 -32 5 -12 6 10 9 21 6 23 -2 3 -7 -2 -11 -11z" fill="teal"/>

<path d="M2182 191 c7 -9 13 -18 15 -20 1 -2 1 5 0 16 0 11 -7 20 -14 20 -10
0 -10 -4 -1 -16z" fill="teal"/>

<path d="M2210 190 c0 -11 2 -20 4 -20 2 0 6 9 9 20 3 11 1 20 -4 20 -5 0 -9
-9 -9 -20z" fill="teal"/>

<path d="M2310 205 c0 -5 4 -16 9 -23 6 -11 10 -10 15 4 3 9 4 19 1 22 -3 3
-5 -1 -5 -9 0 -11 -2 -11 -10 1 -5 8 -10 11 -10 5z" fill="teal"/>

<path d="M2600 198 c0 -9 -6 -19 -12 -21 -10 -4 -10 -6 0 -6 14 -1 28 26 18
36 -3 4 -6 -1 -6 -9z" fill="teal"/>

<path d="M2720 195 c0 -9 6 -12 15 -9 8 4 15 7 15 9 0 2 -7 5 -15 9 -9 3 -15
0 -15 -9z"/>

<path d="M2840 198 c0 -9 -6 -19 -12 -21 -10 -4 -10 -6 0 -6 14 -1 28 26 18
36 -3 4 -6 -1 -6 -9z" fill="teal"/>

<path d="M2922 201 c-11 -7 -11 -9 2 -14 10 -4 16 -1 16 8 0 17 -1 17 -18 6z" fill="teal"/>

<path d="M2520 191 c0 -10 19 -25 25 -20 1 2 -3 10 -11 17 -8 7 -14 8 -14 3z" fill="teal"/>

<path d="M2760 191 c0 -10 19 -25 25 -20 1 2 -3 10 -11 17 -8 7 -14 8 -14 3z" fill="teal"/>

</g>
</svg>
